<svg width="159" height="25" viewBox="0 0 159 25" fill="none" xmlns="http://www.w3.org/2000/svg">
<path d="M26 1.99701C11 1.99701 9 15.997 8 21.997H9.998C10.664 18.6637 12.3313 16.8303 15 16.497C19 15.997 22 12.497 23 9.49701L21.5 8.49701L22.5 7.49701C23.5 6.49701 24.504 4.99701 26 1.99701Z" fill="#20B2AA"/>
<path d="M8.73324 1.18621C8.82408 0.937931 9.1753 0.937931 9.26613 1.18621L9.5375 1.92726C9.75031 2.5086 10.0873 3.03654 10.5251 3.47429C10.9628 3.91204 11.4908 4.24906 12.0721 4.46188L12.8132 4.73324C13.0618 4.82408 13.0618 5.1753 12.8132 5.26613L12.0721 5.5375C11.4908 5.75031 10.9628 6.08734 10.5251 6.52509C10.0873 6.96284 9.75031 7.49078 9.5375 8.07212L9.26613 8.81317C9.1753 9.06183 8.82408 9.06183 8.73324 8.81317L8.46188 8.07212C8.24906 7.49078 7.91204 6.96284 7.47429 6.52509C7.03654 6.08734 6.5086 5.75031 5.92726 5.5375L5.18621 5.26613C4.93793 5.1753 4.93793 4.82408 5.18621 4.73324L5.92726 4.46188C6.5086 4.24906 7.03654 3.91204 7.47429 3.47429C7.91204 3.03654 8.24906 2.5086 8.46188 1.92726L8.73324 1.18621Z" fill="#FFD700"/>
<path d="M43.3789 5.54297C43.3789 5.60807 43.3757 5.71224 43.3691 5.85547C43.3626 5.99219 43.3594 6.0931 43.3594 6.1582C43.3594 6.5944 43.3789 7.05664 43.418 7.54492C43.457 8.0332 43.5189 8.57031 43.6035 9.15625L42.6367 9.32227C42.5326 8.35221 42.1191 7.60026 41.3965 7.06641C40.6738 6.52604 39.7201 6.25586 38.5352 6.25586C37.0247 6.25586 35.8529 6.72786 35.0195 7.67188C34.1927 8.60938 33.7793 9.9375 33.7793 11.6562C33.7793 13.5117 34.248 14.9896 35.1855 16.0898C36.1296 17.1901 37.3893 17.7402 38.9648 17.7402C39.9544 17.7402 40.7975 17.5156 41.4941 17.0664C42.1973 16.6172 42.7669 15.9336 43.2031 15.0156L44.0625 15.416C43.8021 15.9303 43.5742 16.4349 43.3789 16.9297C43.1836 17.418 43.0176 17.903 42.8809 18.3848C42.0931 18.7038 41.3216 18.9447 40.5664 19.1074C39.8177 19.2767 39.0951 19.3613 38.3984 19.3613C36.1328 19.3613 34.2969 18.6908 32.8906 17.3496C31.4844 16.0085 30.7812 14.2572 30.7812 12.0957C30.7812 9.96029 31.5169 8.20247 32.9883 6.82227C34.4661 5.43555 36.3379 4.74219 38.6035 4.74219C39.4173 4.74219 40.2148 4.80729 40.9961 4.9375C41.7839 5.06771 42.5781 5.26953 43.3789 5.54297ZM50.8691 14.3418C50.7259 14.3809 50.5176 14.4395 50.2441 14.5176C48.3822 15.0319 47.4512 15.6406 47.4512 16.3438C47.4512 16.7344 47.5781 17.0632 47.832 17.3301C48.0859 17.5905 48.4049 17.7207 48.7891 17.7207C49.0365 17.7207 49.3164 17.6589 49.6289 17.5352C49.9479 17.4115 50.3613 17.1999 50.8691 16.9004V14.3418ZM54.7656 17.3398L55.127 18.082C54.5345 18.4727 54.0007 18.7656 53.5254 18.9609C53.0566 19.1497 52.6367 19.2441 52.2656 19.2441C51.8164 19.2441 51.4714 19.1302 51.2305 18.9023C50.9961 18.668 50.8594 18.3164 50.8203 17.8477C50.1107 18.3424 49.5117 18.7005 49.0234 18.9219C48.5352 19.1367 48.0957 19.2441 47.7051 19.2441C47.0215 19.2441 46.4388 18.9805 45.957 18.4531C45.4753 17.9193 45.2344 17.2812 45.2344 16.5391C45.2344 15.2891 46.6309 14.3418 49.4238 13.6973C50.0293 13.554 50.5046 13.4401 50.8496 13.3555C50.8561 13.1927 50.8594 13.0365 50.8594 12.8867C50.8659 12.7305 50.8691 12.5807 50.8691 12.4375C50.8691 11.7409 50.7324 11.2331 50.459 10.9141C50.1921 10.5951 49.7624 10.4355 49.1699 10.4355C48.7858 10.4355 48.4538 10.5137 48.1738 10.6699C47.9004 10.8262 47.7539 11.0085 47.7344 11.2168C47.7279 11.2493 47.7246 11.2917 47.7246 11.3438C47.6855 11.9948 47.2754 12.3203 46.4941 12.3203C46.2012 12.3203 45.9766 12.2715 45.8203 12.1738C45.6641 12.0762 45.5859 11.9329 45.5859 11.7441C45.5859 11.2233 46.0645 10.6406 47.0215 9.99609C47.985 9.34505 48.9941 9.01953 50.0488 9.01953C51.0775 9.01953 51.8587 9.28971 52.3926 9.83008C52.9264 10.3639 53.1934 11.1484 53.1934 12.1836C53.1934 12.4961 53.1673 13.1439 53.1152 14.127C53.0697 15.1035 53.0469 15.9271 53.0469 16.5977C53.0469 16.9948 53.099 17.2812 53.2031 17.457C53.3073 17.6328 53.4701 17.7207 53.6914 17.7207C53.8151 17.7207 53.9681 17.6882 54.1504 17.623C54.3327 17.5579 54.5378 17.4635 54.7656 17.3398ZM59.1602 17.3398C59.4727 17.5286 59.8047 17.6751 60.1562 17.7793C60.5143 17.8835 60.8691 17.9355 61.2207 17.9355C62.0736 17.9355 62.7441 17.6393 63.2324 17.0469C63.7272 16.4479 63.9746 15.6243 63.9746 14.5762C63.9746 13.3978 63.724 12.4668 63.2227 11.7832C62.7279 11.0996 62.0605 10.7578 61.2207 10.7578C60.8561 10.7578 60.5013 10.8099 60.1562 10.9141C59.8177 11.0117 59.5052 11.1549 59.2188 11.3438C59.1992 12.1901 59.1829 12.9909 59.1699 13.7461C59.1634 14.5013 59.1602 15.1914 59.1602 15.8164V17.3398ZM59.3164 8.75586L59.2188 10.3379C59.8112 9.92122 60.3548 9.61849 60.8496 9.42969C61.3444 9.23438 61.8392 9.13672 62.334 9.13672C63.4928 9.13672 64.4564 9.57617 65.2246 10.4551C65.9928 11.334 66.377 12.4277 66.377 13.7363C66.377 15.3509 65.8984 16.6497 64.9414 17.6328C63.9909 18.6094 62.7441 19.0977 61.2012 19.0977C60.8301 19.0977 60.472 19.0684 60.127 19.0098C59.7884 18.9512 59.4661 18.86 59.1602 18.7363L59.1406 20.6992V21.4805C59.1406 22.2357 59.2253 22.7077 59.3945 22.8965C59.5703 23.0853 59.9382 23.1797 60.498 23.1797H60.8789L60.8691 24.0391C60.1855 24.0065 59.6094 23.9805 59.1406 23.9609C58.6784 23.9479 58.265 23.9414 57.9004 23.9414C57.6855 23.9414 57.3926 23.9479 57.0215 23.9609C56.6569 23.974 56.097 24 55.3418 24.0391V23.1797H55.498C55.8366 23.1797 56.0938 23.1471 56.2695 23.082C56.4518 23.0169 56.5755 22.916 56.6406 22.7793C56.7448 22.5645 56.8164 22.1576 56.8555 21.5586C56.8945 20.9661 56.9141 19.8268 56.9141 18.1406V17.0566V13.1797C56.9141 12.1185 56.8522 11.4382 56.7285 11.1387C56.6048 10.8327 56.3737 10.6797 56.0352 10.6797C55.9961 10.6797 55.8984 10.6862 55.7422 10.6992C55.6576 10.7122 55.5957 10.7188 55.5566 10.7188L55.459 9.97656C56.1361 9.84635 56.7936 9.68034 57.4316 9.47852C58.0762 9.27669 58.7044 9.03581 59.3164 8.75586ZM70.6055 7.32031L71.4648 7.56445C71.4258 7.92904 71.39 8.27734 71.3574 8.60938C71.3314 8.9349 71.3151 9.24414 71.3086 9.53711C72.1615 9.53711 72.7962 9.5306 73.2129 9.51758C73.6296 9.50456 74.0137 9.48503 74.3652 9.45898L74.1113 10.7969C73.7012 10.7643 73.2585 10.7415 72.7832 10.7285C72.3145 10.709 71.8229 10.7025 71.3086 10.709C71.2891 11.5684 71.2728 12.304 71.2598 12.916C71.2533 13.5215 71.25 13.9967 71.25 14.3418C71.25 15.7676 71.3509 16.6986 71.5527 17.1348C71.7611 17.5645 72.1257 17.7793 72.6465 17.7793C72.8548 17.7793 73.0924 17.737 73.3594 17.6523C73.6263 17.5677 73.929 17.4375 74.2676 17.2617L74.6484 18.082C73.9323 18.4857 73.2943 18.7917 72.7344 19C72.1745 19.2148 71.7122 19.3223 71.3477 19.3223C70.5143 19.3223 69.8991 19.0618 69.502 18.541C69.1048 18.0137 68.9062 17.1999 68.9062 16.0996C68.9062 15.8848 68.9225 15.1784 68.9551 13.9805C68.9941 12.7826 69.0137 11.6888 69.0137 10.6992C69.0007 10.6992 68.8444 10.7057 68.5449 10.7188C68.252 10.7318 67.9069 10.7448 67.5098 10.7578V9.82031C68.265 9.70964 68.8965 9.44922 69.4043 9.03906C69.9186 8.6224 70.319 8.04948 70.6055 7.32031ZM81.3184 14.3418C81.1751 14.3809 80.9668 14.4395 80.6934 14.5176C78.8314 15.0319 77.9004 15.6406 77.9004 16.3438C77.9004 16.7344 78.0273 17.0632 78.2812 17.3301C78.5352 17.5905 78.8542 17.7207 79.2383 17.7207C79.4857 17.7207 79.7656 17.6589 80.0781 17.5352C80.3971 17.4115 80.8105 17.1999 81.3184 16.9004V14.3418ZM85.2148 17.3398L85.5762 18.082C84.9837 18.4727 84.4499 18.7656 83.9746 18.9609C83.5059 19.1497 83.0859 19.2441 82.7148 19.2441C82.2656 19.2441 81.9206 19.1302 81.6797 18.9023C81.4453 18.668 81.3086 18.3164 81.2695 17.8477C80.5599 18.3424 79.9609 18.7005 79.4727 18.9219C78.9844 19.1367 78.5449 19.2441 78.1543 19.2441C77.4707 19.2441 76.888 18.9805 76.4062 18.4531C75.9245 17.9193 75.6836 17.2812 75.6836 16.5391C75.6836 15.2891 77.0801 14.3418 79.873 13.6973C80.4785 13.554 80.9538 13.4401 81.2988 13.3555C81.3053 13.1927 81.3086 13.0365 81.3086 12.8867C81.3151 12.7305 81.3184 12.5807 81.3184 12.4375C81.3184 11.7409 81.1816 11.2331 80.9082 10.9141C80.6413 10.5951 80.2116 10.4355 79.6191 10.4355C79.235 10.4355 78.903 10.5137 78.623 10.6699C78.3496 10.8262 78.2031 11.0085 78.1836 11.2168C78.1771 11.2493 78.1738 11.2917 78.1738 11.3438C78.1348 11.9948 77.7246 12.3203 76.9434 12.3203C76.6504 12.3203 76.4258 12.2715 76.2695 12.1738C76.1133 12.0762 76.0352 11.9329 76.0352 11.7441C76.0352 11.2233 76.5137 10.6406 77.4707 9.99609C78.4342 9.34505 79.4434 9.01953 80.498 9.01953C81.5267 9.01953 82.3079 9.28971 82.8418 9.83008C83.3757 10.3639 83.6426 11.1484 83.6426 12.1836C83.6426 12.4961 83.6165 13.1439 83.5645 14.127C83.5189 15.1035 83.4961 15.9271 83.4961 16.5977C83.4961 16.9948 83.5482 17.2812 83.6523 17.457C83.7565 17.6328 83.9193 17.7207 84.1406 17.7207C84.2643 17.7207 84.4173 17.6882 84.5996 17.623C84.7819 17.5579 84.987 17.4635 85.2148 17.3398ZM88.6426 4.09766L89.5312 4.70312C89.7526 4.85286 89.9154 5.00911 90.0195 5.17188C90.1302 5.33464 90.1855 5.51042 90.1855 5.69922C90.1855 5.89453 90.1432 6.0638 90.0586 6.20703C89.974 6.34375 89.8242 6.48698 89.6094 6.63672L88.6621 7.28125L87.7832 6.69531C87.5488 6.54557 87.373 6.38932 87.2559 6.22656C87.1452 6.0638 87.0898 5.89453 87.0898 5.71875C87.0898 5.52344 87.1354 5.35091 87.2266 5.20117C87.3177 5.05143 87.4837 4.89193 87.7246 4.72266L88.6426 4.09766ZM90.0098 9C89.9707 10.4062 89.9382 11.6335 89.9121 12.6816C89.8926 13.7298 89.8828 14.5892 89.8828 15.2598V16.4023C89.8828 17.1641 89.9577 17.6523 90.1074 17.8672C90.2637 18.0755 90.5566 18.1797 90.9863 18.1797C91.0189 18.1797 91.0677 18.1764 91.1328 18.1699C91.2044 18.1634 91.263 18.1602 91.3086 18.1602V19C90.7096 18.9609 90.1855 18.9316 89.7363 18.9121C89.2871 18.8926 88.916 18.8828 88.623 18.8828C88.3757 18.8828 88.0404 18.8926 87.6172 18.9121C87.2005 18.9316 86.7025 18.9609 86.123 19V18.1602H86.3281C87.1615 18.1602 87.5814 17.3919 87.5879 15.8555C87.5879 15.6081 87.5879 15.416 87.5879 15.2793L87.6074 13.1992V12.3398C87.6074 11.6107 87.5488 11.1419 87.4316 10.9336C87.3145 10.7253 87.0866 10.6211 86.748 10.6211C86.7025 10.6211 86.5983 10.6276 86.4355 10.6406C86.3639 10.6471 86.3086 10.6536 86.2695 10.6602L86.123 9.87891C86.8132 9.78776 87.4772 9.67057 88.1152 9.52734C88.7533 9.38411 89.3848 9.20833 90.0098 9ZM96.2891 9L96.1328 10.6016C96.9141 10.0417 97.5814 9.63477 98.1348 9.38086C98.6882 9.12695 99.1797 9 99.6094 9C100.632 9 101.4 9.29948 101.914 9.89844C102.435 10.4909 102.695 11.3698 102.695 12.5352C102.695 12.7565 102.689 13.2708 102.676 14.0781C102.663 14.8789 102.656 15.5723 102.656 16.1582C102.656 17.1152 102.725 17.6914 102.861 17.8867C103.005 18.082 103.288 18.1797 103.711 18.1797H103.916L103.896 19C103.317 18.9609 102.822 18.9316 102.412 18.9121C102.002 18.8926 101.67 18.8828 101.416 18.8828C101.143 18.8828 100.804 18.8926 100.4 18.9121C100.003 18.9316 99.541 18.9609 99.0137 19V18.1797H99.1309C99.9382 18.1797 100.352 17.3659 100.371 15.7383C100.371 15.6862 100.371 15.6471 100.371 15.6211V13.5605C100.371 12.4342 100.241 11.6758 99.9805 11.2852C99.7201 10.8945 99.2773 10.6992 98.6523 10.6992C98.3138 10.6992 97.9492 10.7708 97.5586 10.9141C97.168 11.0508 96.7383 11.2656 96.2695 11.5586C96.2435 12.1445 96.224 12.7533 96.2109 13.3848C96.1979 14.0163 96.1914 14.6934 96.1914 15.416V16.2168C96.1914 17.0957 96.2598 17.6426 96.3965 17.8574C96.5397 18.0723 96.8197 18.1797 97.2363 18.1797H97.3926V19C96.8457 18.9609 96.3672 18.9316 95.957 18.9121C95.5469 18.8926 95.1986 18.8828 94.9121 18.8828C94.6322 18.8828 94.2871 18.8926 93.877 18.9121C93.4668 18.9316 92.9915 18.9609 92.4512 19V18.1797H92.6758C93.4831 18.1797 93.8932 17.3626 93.9062 15.7285C93.9062 15.5332 93.9095 15.3835 93.916 15.2793L93.9355 13.2578V12.3984C93.9355 11.6628 93.877 11.1875 93.7598 10.9727C93.6491 10.7513 93.4408 10.6406 93.1348 10.6406C93.0762 10.6406 92.946 10.6504 92.7441 10.6699C92.7051 10.6764 92.6758 10.6797 92.6562 10.6797L92.5977 9.91797C93.138 9.83333 93.7077 9.71615 94.3066 9.56641C94.9056 9.41667 95.5664 9.22786 96.2891 9ZM123.232 12.2812C123.232 10.4453 122.803 8.96745 121.943 7.84766C121.09 6.72135 119.974 6.1582 118.594 6.1582C117.266 6.1582 116.204 6.65625 115.41 7.65234C114.622 8.64844 114.229 9.99609 114.229 11.6953C114.229 13.5638 114.658 15.0579 115.518 16.1777C116.383 17.2975 117.523 17.8574 118.936 17.8574C120.251 17.8574 121.296 17.3594 122.07 16.3633C122.845 15.3672 123.232 14.0065 123.232 12.2812ZM121.436 18.6973L123.408 19.8789C124.71 20.6602 125.736 21.1973 126.484 21.4902C127.233 21.7897 127.904 21.9395 128.496 21.9395C128.711 21.9395 128.926 21.9264 129.141 21.9004C129.362 21.8809 129.59 21.8483 129.824 21.8027L129.971 22.6426C129.163 22.877 128.473 23.0462 127.9 23.1504C127.327 23.2611 126.816 23.3164 126.367 23.3164C124.707 23.3164 122.096 22.0176 118.535 19.4199L118.271 19.2246C116.227 19.2246 114.541 18.5573 113.213 17.2227C111.891 15.888 111.23 14.2018 111.23 12.1641C111.23 10.0417 111.969 8.26758 113.447 6.8418C114.925 5.41602 116.774 4.70312 118.994 4.70312C119.932 4.70312 120.811 4.85612 121.631 5.16211C122.458 5.46159 123.19 5.90104 123.828 6.48047C124.609 7.17708 125.208 7.9974 125.625 8.94141C126.042 9.87891 126.25 10.8783 126.25 11.9395C126.25 13.5475 125.83 14.944 124.99 16.1289C124.15 17.3073 122.965 18.1634 121.436 18.6973ZM131.25 9.06836C131.204 10.2272 131.169 11.2754 131.143 12.2129C131.123 13.1504 131.113 13.9316 131.113 14.5566C131.113 15.6895 131.247 16.4805 131.514 16.9297C131.781 17.3789 132.227 17.6035 132.852 17.6035C133.164 17.6035 133.516 17.5319 133.906 17.3887C134.297 17.2454 134.717 17.0371 135.166 16.7637C135.186 15.8327 135.199 15.0417 135.205 14.3906C135.218 13.7396 135.225 13.222 135.225 12.8379V12.3984C135.225 11.5911 135.153 11.0866 135.01 10.8848C134.867 10.6829 134.593 10.582 134.189 10.582C134.118 10.582 134.046 10.5853 133.975 10.5918C133.903 10.5918 133.828 10.5951 133.75 10.6016L133.691 9.82031C134.375 9.75521 135.042 9.67708 135.693 9.58594C136.344 9.49479 136.982 9.38737 137.607 9.26367C137.562 10.7741 137.529 11.9232 137.51 12.7109C137.497 13.4922 137.49 14.2214 137.49 14.8984V15.7969C137.49 16.6432 137.542 17.1771 137.646 17.3984C137.751 17.6133 137.959 17.7207 138.271 17.7207C138.35 17.7207 138.434 17.7142 138.525 17.7012C138.623 17.6882 138.724 17.6686 138.828 17.6426L138.926 18.4434L135.186 19.2832V17.7793C134.437 18.3262 133.796 18.7135 133.262 18.9414C132.728 19.1693 132.21 19.2832 131.709 19.2832C130.732 19.2832 130.003 18.9805 129.521 18.375C129.046 17.763 128.809 16.8385 128.809 15.6016C128.809 15.3411 128.809 15.1263 128.809 14.957C128.815 14.7878 128.822 14.6185 128.828 14.4492L128.867 13.1211C128.867 12.9909 128.87 12.8249 128.877 12.623C128.883 12.4147 128.887 12.2682 128.887 12.1836C128.887 11.5391 128.831 11.1061 128.721 10.8848C128.61 10.6569 128.411 10.543 128.125 10.543C128.001 10.543 127.829 10.5527 127.607 10.5723C127.581 10.5788 127.562 10.582 127.549 10.582L127.49 9.78125C128.109 9.70312 128.73 9.60547 129.355 9.48828C129.98 9.36458 130.612 9.22461 131.25 9.06836ZM142.646 4.09766L143.535 4.70312C143.757 4.85286 143.919 5.00911 144.023 5.17188C144.134 5.33464 144.189 5.51042 144.189 5.69922C144.189 5.89453 144.147 6.0638 144.062 6.20703C143.978 6.34375 143.828 6.48698 143.613 6.63672L142.666 7.28125L141.787 6.69531C141.553 6.54557 141.377 6.38932 141.26 6.22656C141.149 6.0638 141.094 5.89453 141.094 5.71875C141.094 5.52344 141.139 5.35091 141.23 5.20117C141.322 5.05143 141.488 4.89193 141.729 4.72266L142.646 4.09766ZM144.014 9C143.975 10.4062 143.942 11.6335 143.916 12.6816C143.896 13.7298 143.887 14.5892 143.887 15.2598V16.4023C143.887 17.1641 143.962 17.6523 144.111 17.8672C144.268 18.0755 144.561 18.1797 144.99 18.1797C145.023 18.1797 145.072 18.1764 145.137 18.1699C145.208 18.1634 145.267 18.1602 145.312 18.1602V19C144.714 18.9609 144.189 18.9316 143.74 18.9121C143.291 18.8926 142.92 18.8828 142.627 18.8828C142.38 18.8828 142.044 18.8926 141.621 18.9121C141.204 18.9316 140.706 18.9609 140.127 19V18.1602H140.332C141.165 18.1602 141.585 17.3919 141.592 15.8555C141.592 15.6081 141.592 15.416 141.592 15.2793L141.611 13.1992V12.3398C141.611 11.6107 141.553 11.1419 141.436 10.9336C141.318 10.7253 141.09 10.6211 140.752 10.6211C140.706 10.6211 140.602 10.6276 140.439 10.6406C140.368 10.6471 140.312 10.6536 140.273 10.6602L140.127 9.87891C140.817 9.78776 141.481 9.67057 142.119 9.52734C142.757 9.38411 143.389 9.20833 144.014 9ZM150.381 3.88281C150.335 5.09375 150.303 6.24935 150.283 7.34961C150.264 8.44987 150.254 9.5013 150.254 10.5039V14.8398C150.254 15.8359 150.27 16.5326 150.303 16.9297C150.335 17.3203 150.384 17.5872 150.449 17.7305C150.514 17.8737 150.635 17.9811 150.811 18.0527C150.986 18.1243 151.214 18.1602 151.494 18.1602H151.719V19C151.094 18.9609 150.55 18.9316 150.088 18.9121C149.632 18.8926 149.255 18.8828 148.955 18.8828C148.682 18.8828 148.337 18.8926 147.92 18.9121C147.503 18.9316 147.015 18.9609 146.455 19V18.1602C146.488 18.1602 146.536 18.1634 146.602 18.1699C146.673 18.1764 146.725 18.1797 146.758 18.1797C147.565 18.1797 147.969 17.1706 147.969 15.1523C147.975 14.8268 147.979 14.5762 147.979 14.4004L147.998 9.9375V7.30078C147.998 6.57161 147.939 6.08659 147.822 5.8457C147.712 5.60482 147.503 5.48438 147.197 5.48438C147.113 5.48438 147.021 5.49089 146.924 5.50391C146.826 5.51042 146.732 5.52344 146.641 5.54297L146.533 4.76172C147.23 4.65104 147.894 4.52409 148.525 4.38086C149.163 4.23763 149.782 4.07161 150.381 3.88281ZM156.768 3.88281C156.722 5.09375 156.689 6.24935 156.67 7.34961C156.65 8.44987 156.641 9.5013 156.641 10.5039V14.8398C156.641 15.8359 156.657 16.5326 156.689 16.9297C156.722 17.3203 156.771 17.5872 156.836 17.7305C156.901 17.8737 157.021 17.9811 157.197 18.0527C157.373 18.1243 157.601 18.1602 157.881 18.1602H158.105V19C157.48 18.9609 156.937 18.9316 156.475 18.9121C156.019 18.8926 155.641 18.8828 155.342 18.8828C155.068 18.8828 154.723 18.8926 154.307 18.9121C153.89 18.9316 153.402 18.9609 152.842 19V18.1602C152.874 18.1602 152.923 18.1634 152.988 18.1699C153.06 18.1764 153.112 18.1797 153.145 18.1797C153.952 18.1797 154.355 17.1706 154.355 15.1523C154.362 14.8268 154.365 14.5762 154.365 14.4004L154.385 9.9375V7.30078C154.385 6.57161 154.326 6.08659 154.209 5.8457C154.098 5.60482 153.89 5.48438 153.584 5.48438C153.499 5.48438 153.408 5.49089 153.311 5.50391C153.213 5.51042 153.118 5.52344 153.027 5.54297L152.92 4.76172C153.617 4.65104 154.281 4.52409 154.912 4.38086C155.55 4.23763 156.169 4.07161 156.768 3.88281Z" fill="#1F2937"/>
</svg>
